<svg xmlns="http://www.w3.org/2000/svg" width="1600" height="1100" viewBox="0 0 1600 1100">
  <defs>
    <linearGradient id="bg" x1="0" y1="0" x2="1" y2="1">
      <stop offset="0%" stop-color="#f4fbf2"/>
      <stop offset="100%" stop-color="#fdf7ec"/>
    </linearGradient>
    <filter id="shadow" x="-20%" y="-20%" width="140%" height="140%">
      <feDropShadow dx="0" dy="10" stdDeviation="14" flood-color="#18311f" flood-opacity="0.12"/>
    </filter>
    <style>
      .title { font: 700 34px 'Segoe UI', Arial, sans-serif; fill: #102217; }
      .subtitle { font: 500 16px 'Segoe UI', Arial, sans-serif; fill: #5e6b62; }
      .actor { fill: #102217; stroke: #102217; stroke-width: 2; }
      .actorText { font: 700 20px 'Segoe UI', Arial, sans-serif; fill: #102217; }
      .system { fill: rgba(255,255,255,0.7); stroke: #78956f; stroke-width: 3; }
      .uc { fill: #ffffff; stroke: #9bbc90; stroke-width: 2.5; }
      .ucText { font: 600 18px 'Segoe UI', Arial, sans-serif; fill: #203126; }
      .edge { stroke: #68855f; stroke-width: 2.2; fill: none; }
      .include { stroke: #c89243; stroke-width: 2; stroke-dasharray: 8 8; fill: none; }
      .label { font: 700 14px 'Segoe UI', Arial, sans-serif; fill: #8a5b21; }
    </style>
  </defs>

  <rect width="1600" height="1100" fill="url(#bg)"/>
  <rect x="40" y="40" width="1520" height="1020" rx="32" fill="#ffffff" opacity="0.65"/>

  <text x="90" y="110" class="title">Khety Use Case Diagram</text>
  <text x="90" y="142" class="subtitle">Only implemented features from the current frontend and backend codebase</text>

  <rect x="360" y="190" width="1120" height="820" rx="34" class="system" filter="url(#shadow)"/>
  <text x="920" y="235" text-anchor="middle" class="title" style="font-size:28px;">Khety System</text>

  <g transform="translate(110,300)">
    <circle cx="60" cy="30" r="26" fill="#102217"/>
    <line x1="60" y1="56" x2="60" y2="128" class="actor"/>
    <line x1="20" y1="86" x2="100" y2="86" class="actor"/>
    <line x1="60" y1="128" x2="25" y2="182" class="actor"/>
    <line x1="60" y1="128" x2="95" y2="182" class="actor"/>
    <text x="60" y="222" text-anchor="middle" class="actorText">Visitor</text>
  </g>

  <g transform="translate(110,555)">
    <circle cx="60" cy="30" r="26" fill="#102217"/>
    <line x1="60" y1="56" x2="60" y2="128" class="actor"/>
    <line x1="20" y1="86" x2="100" y2="86" class="actor"/>
    <line x1="60" y1="128" x2="25" y2="182" class="actor"/>
    <line x1="60" y1="128" x2="95" y2="182" class="actor"/>
    <text x="60" y="222" text-anchor="middle" class="actorText">Farmer</text>
  </g>

  <g transform="translate(1310,470)">
    <circle cx="60" cy="30" r="26" fill="#102217"/>
    <line x1="60" y1="56" x2="60" y2="128" class="actor"/>
    <line x1="20" y1="86" x2="100" y2="86" class="actor"/>
    <line x1="60" y1="128" x2="25" y2="182" class="actor"/>
    <line x1="60" y1="128" x2="95" y2="182" class="actor"/>
    <text x="60" y="222" text-anchor="middle" class="actorText">Owner</text>
  </g>

  <g filter="url(#shadow)">
    <ellipse cx="565" cy="320" rx="120" ry="34" class="uc"/>
    <text x="565" y="326" text-anchor="middle" class="ucText">Sign Up</text>

    <ellipse cx="835" cy="320" rx="120" ry="34" class="uc"/>
    <text x="835" y="326" text-anchor="middle" class="ucText">Login</text>

    <ellipse cx="1115" cy="320" rx="170" ry="34" class="uc"/>
    <text x="1115" y="326" text-anchor="middle" class="ucText">Forgot / Reset Password</text>

    <ellipse cx="565" cy="430" rx="150" ry="34" class="uc"/>
    <text x="565" y="436" text-anchor="middle" class="ucText">View / Update Profile</text>

    <ellipse cx="870" cy="430" rx="170" ry="34" class="uc"/>
    <text x="870" y="436" text-anchor="middle" class="ucText">Open Farmer Dashboard</text>

    <ellipse cx="1175" cy="430" rx="165" ry="34" class="uc"/>
    <text x="1175" y="436" text-anchor="middle" class="ucText">Open Owner Dashboard</text>

    <ellipse cx="560" cy="560" rx="150" ry="34" class="uc"/>
    <text x="560" y="566" text-anchor="middle" class="ucText">Detect Plant Disease</text>

    <ellipse cx="845" cy="560" rx="145" ry="34" class="uc"/>
    <text x="845" y="566" text-anchor="middle" class="ucText">Save Prediction Report</text>

    <ellipse cx="1135" cy="560" rx="140" ry="34" class="uc"/>
    <text x="1135" y="566" text-anchor="middle" class="ucText">View Detection History</text>

    <ellipse cx="560" cy="690" rx="145" ry="34" class="uc"/>
    <text x="560" y="696" text-anchor="middle" class="ucText">Open Single Report</text>

    <ellipse cx="845" cy="690" rx="170" ry="34" class="uc"/>
    <text x="845" y="696" text-anchor="middle" class="ucText">Browse Product Marketplace</text>

    <ellipse cx="1135" cy="690" rx="140" ry="34" class="uc"/>
    <text x="1135" y="696" text-anchor="middle" class="ucText">Create Crop Listing</text>

    <ellipse cx="560" cy="820" rx="150" ry="34" class="uc"/>
    <text x="560" y="826" text-anchor="middle" class="ucText">View My Crop Listings</text>

    <ellipse cx="845" cy="820" rx="175" ry="34" class="uc"/>
    <text x="845" y="826" text-anchor="middle" class="ucText">Browse Farmer Crop Listings</text>

    <ellipse cx="1135" cy="820" rx="175" ry="34" class="uc"/>
    <text x="1135" y="826" text-anchor="middle" class="ucText">Send / Update Request</text>

    <ellipse cx="705" cy="930" rx="110" ry="34" class="uc"/>
    <text x="705" y="936" text-anchor="middle" class="ucText">Chat</text>

    <ellipse cx="920" cy="930" rx="135" ry="34" class="uc"/>
    <text x="920" y="936" text-anchor="middle" class="ucText">Accept / Reject</text>

    <ellipse cx="1135" cy="930" rx="120" ry="34" class="uc"/>
    <text x="1135" y="936" text-anchor="middle" class="ucText">Confirm Deal</text>
  </g>

  <path d="M230 345 C320 335, 375 330, 445 320" class="edge"/>
  <path d="M230 350 C390 345, 620 326, 715 320" class="edge"/>
  <path d="M230 357 C450 360, 890 340, 945 325" class="edge"/>

  <path d="M230 620 C330 610, 395 485, 445 442" class="edge"/>
  <path d="M230 630 C380 620, 610 455, 710 437" class="edge"/>
  <path d="M230 640 C410 620, 395 580, 410 565" class="edge"/>
  <path d="M230 652 C430 650, 980 572, 995 565" class="edge"/>
  <path d="M230 664 C370 700, 405 702, 415 695" class="edge"/>
  <path d="M230 676 C390 700, 640 700, 675 695" class="edge"/>
  <path d="M230 688 C420 770, 390 825, 410 825" class="edge"/>
  <path d="M230 700 C500 810, 590 825, 670 825" class="edge"/>
  <path d="M230 712 C490 850, 560 930, 595 930" class="edge"/>
  <path d="M230 720 C580 980, 760 940, 785 936" class="edge"/>
  <path d="M230 725 C720 1020, 980 944, 1015 936" class="edge"/>

  <path d="M1310 555 C1230 510, 1260 466, 1240 442" class="edge"/>
  <path d="M1310 565 C1185 620, 1110 650, 1015 688" class="edge"/>
  <path d="M1310 575 C1225 760, 1245 780, 1310 810" class="edge"/>
  <path d="M1310 585 C1210 860, 860 900, 815 930" class="edge"/>
  <path d="M1310 595 C1260 840, 1240 910, 1250 928" class="edge"/>
  <path d="M1310 605 C1160 715, 1030 805, 1010 815" class="edge"/>
  <path d="M1310 615 C1150 700, 1100 700, 1015 694" class="edge"/>
  <path d="M1310 625 C1180 325, 920 325, 955 325" class="edge"/>
  <path d="M1310 635 C1115 430, 1260 430, 1340 430" class="edge" visibility="hidden"/>

  <path d="M690 560 L700 560" class="include"/>
  <text x="695" y="548" class="label">includes</text>

  <path d="M1015 560 C1085 560, 1085 650, 690 690" class="include"/>
  <text x="1000" y="620" class="label">uses</text>

  <path d="M1275 820 C1285 880, 1180 910, 1038 928" class="include"/>
  <text x="1260" y="884" class="label">continues via</text>
</svg>
